<?xml version="1.0" encoding="UTF-8" standalone="no"?>
<!-- Created with Inkscape (http://www.inkscape.org/) -->

<svg
   xmlns:dc="http://purl.org/dc/elements/1.1/"
   xmlns:cc="http://creativecommons.org/ns#"
   xmlns:rdf="http://www.w3.org/1999/02/22-rdf-syntax-ns#"
   xmlns:svg="http://www.w3.org/2000/svg"
   xmlns="http://www.w3.org/2000/svg"
   xmlns:sodipodi="http://sodipodi.sourceforge.net/DTD/sodipodi-0.dtd"
   xmlns:inkscape="http://www.inkscape.org/namespaces/inkscape"
   width="210mm"
   height="297mm"
   viewBox="0 0 744.09448819 1052.3622047"
   id="svg4684"
   version="1.1"
   inkscape:version="0.91 r13725"
   sodipodi:docname="doorbell_cabinet.svg">
  <defs
     id="defs4686" />
  <sodipodi:namedview
     id="base"
     pagecolor="#ffffff"
     bordercolor="#666666"
     borderopacity="1.0"
     inkscape:pageopacity="0.0"
     inkscape:pageshadow="2"
     inkscape:zoom="3.959798"
     inkscape:cx="263.69629"
     inkscape:cy="559.86356"
     inkscape:document-units="px"
     inkscape:current-layer="layer1"
     showgrid="false"
     inkscape:window-width="2880"
     inkscape:window-height="1505"
     inkscape:window-x="0"
     inkscape:window-y="36"
     inkscape:window-maximized="1" />
  <metadata
     id="metadata4689">
    <rdf:RDF>
      <cc:Work
         rdf:about="">
        <dc:format>image/svg+xml</dc:format>
        <dc:type
           rdf:resource="http://purl.org/dc/dcmitype/StillImage" />
        <dc:title></dc:title>
      </cc:Work>
    </rdf:RDF>
  </metadata>
  <g
     inkscape:label="Layer 1"
     inkscape:groupmode="layer"
     id="layer1">
    <g
       id="g5598"
       transform="translate(708.66142,-38.571429)">
      <rect
         y="748.2923"
         x="0.65451574"
         height="303.41537"
         width="530.18701"
         id="rect4692"
         style="fill:#0000ff;fill-opacity:0;fill-rule:evenodd;stroke:#000000;stroke-width:1.30903149px;stroke-linecap:butt;stroke-linejoin:miter;stroke-opacity:1" />
      <rect
         y="978.69031"
         x="39.713917"
         height="62.304451"
         width="363.48557"
         id="rect5501"
         style="fill:#0000ff;fill-opacity:0;stroke:#000000;stroke-width:1.47507596;stroke-opacity:1" />
      <rect
         y="822.52875"
         x="404.41852"
         height="190.37553"
         width="115.96609"
         id="rect5503"
         style="fill:#0000ff;fill-opacity:0;stroke:#000000;stroke-width:0.96304232;stroke-opacity:1" />
      <rect
         y="758.83545"
         x="128.12682"
         height="62.644012"
         width="363.8251"
         id="rect5505"
         style="fill:#0000ff;fill-opacity:0;stroke:#000000;stroke-width:1.1355176;stroke-opacity:1" />
      <rect
         y="787.638"
         x="11.653766"
         height="189.29089"
         width="114.88145"
         id="rect5507"
         style="fill:#0000ff;fill-opacity:0;stroke:#000000;stroke-width:2.04768968;stroke-opacity:1" />
      <circle
         r="5.7758684"
         cy="1031.1024"
         cx="21.259842"
         id="path5509"
         style="fill:#0000ff;fill-opacity:0;stroke:#000000;stroke-width:1.20416832;stroke-opacity:1" />
      <circle
         r="5.7758684"
         cy="995.66931"
         cx="21.259842"
         id="path5509-3"
         style="fill:#0000ff;fill-opacity:0;stroke:#000000;stroke-width:1.20416832;stroke-opacity:1" />
      <circle
         r="5.7758684"
         cy="767.75171"
         cx="17.425131"
         id="path5509-3-6"
         style="fill:#0000ff;fill-opacity:0;stroke:#000000;stroke-width:1.20416832;stroke-opacity:1" />
      <circle
         r="5.7758684"
         cy="768.89764"
         cx="106.29921"
         id="path5509-3-6-7"
         style="fill:#0000ff;fill-opacity:0;stroke:#000000;stroke-width:1.20416832;stroke-opacity:1" />
      <circle
         r="5.7758684"
         cy="768.89764"
         cx="510.23621"
         id="path5509-3-6-7-5"
         style="fill:#0000ff;fill-opacity:0;stroke:#000000;stroke-width:1.20416832;stroke-opacity:1" />
      <circle
         r="5.7758684"
         cy="804.33069"
         cx="510.23621"
         id="path5509-3-6-7-5-3"
         style="fill:#0000ff;fill-opacity:0;stroke:#000000;stroke-width:1.20416832;stroke-opacity:1" />
      <circle
         r="5.7758684"
         cy="1031.1024"
         cx="425.19684"
         id="path5509-3-6-7-5-5"
         style="fill:#0000ff;fill-opacity:0;stroke:#000000;stroke-width:1.20416832;stroke-opacity:1" />
      <circle
         r="5.7758684"
         cy="1031.1024"
         cx="510.23621"
         id="path5509-3-6-7-5-6"
         style="fill:#0000ff;fill-opacity:0;stroke:#000000;stroke-width:1.20416832;stroke-opacity:1" />
    </g>
    <g
       id="g6245">
      <path
         id="path6112"
         d="m 503.758,635.09971 a 175.41725,175.41725 0 0 0 18.7168,-43.74805 l 0,-92.1914 A 175.41725,175.41725 0 0 0 503.758,455.3419 l 0,179.75781 z"
         style="fill:#0000ff;fill-opacity:0;stroke:#ff0000;stroke-width:3.49621391;stroke-opacity:1"
         inkscape:connector-curvature="0" />
      <path
         id="path6106"
         d="m 468.32442,677.28526 a 175.41725,175.41725 0 0 0 18.71878,-19.15625 l 0,-226.28711 a 175.41725,175.41725 0 0 0 -18.71878,-18.86719 l 0,264.31055 z"
         style="fill:#0000ff;fill-opacity:0;stroke:#ff0000;stroke-width:3.49621391;stroke-opacity:1"
         inkscape:connector-curvature="0" />
      <path
         id="path6101"
         d="m 432.89082,701.32237 a 175.41725,175.41725 0 0 0 18.71875,-11.17579 l 0,-290.0371 a 175.41725,175.41725 0 0 0 -18.71875,-11.16993 l 0,312.38282 z"
         style="fill:#0000ff;fill-opacity:0;stroke:#ff0000;stroke-width:3.49621391;stroke-opacity:1"
         inkscape:connector-curvature="0" />
      <path
         id="path6096"
         d="m 397.45723,714.8146 a 175.41725,175.41725 0 0 0 18.71875,-6.06255 l 0,-327.16797 a 175.41725,175.41725 0 0 0 -18.71875,-6.00781 l 0,339.23833 z"
         style="fill:#0000ff;fill-opacity:0;stroke:#ff0000;stroke-width:3.49621391;stroke-opacity:1"
         inkscape:connector-curvature="0" />
      <path
         id="path6091"
         d="m 362.02559,720.2091 a 175.41725,175.41725 0 0 0 18.71875,-1.9629 l 0,-346.13868 a 175.41725,175.41725 0 0 0 -18.71875,-2.01758 l 0,350.11916 z"
         style="fill:#0000ff;fill-opacity:0;stroke:#ff0000;stroke-width:3.49621391;stroke-opacity:1"
         inkscape:connector-curvature="0" />
      <path
         id="path6086"
         d="m 326.59199,718.2755 a 175.41725,175.41725 0 0 0 18.71875,2.0449 l 0,-349.98827 a 175.41725,175.41725 0 0 0 -18.71875,1.95508 l 0,345.98829 z"
         style="fill:#0000ff;fill-opacity:0;stroke:#ff0000;stroke-width:3.49621391;stroke-opacity:1"
         inkscape:connector-curvature="0" />
      <path
         id="path6081"
         d="m 291.1584,708.69151 a 175.41725,175.41725 0 0 0 18.71875,5.99999 l 0,-338.83398 a 175.41725,175.41725 0 0 0 -18.71875,5.8711 l 0,326.96289 z"
         style="fill:#0000ff;fill-opacity:0;stroke:#ff0000;stroke-width:3.49621391;stroke-opacity:1"
         inkscape:connector-curvature="0" />
      <path
         id="path6076"
         d="m 255.72676,690.33408 a 175.41725,175.41725 0 0 0 18.7168,10.90235 l 0,-312.05078 a 175.41725,175.41725 0 0 0 -18.7168,10.86133 l 0,290.2871 z"
         style="fill:#0000ff;fill-opacity:0;stroke:#ff0000;stroke-width:3.49621391;stroke-opacity:1"
         inkscape:connector-curvature="0" />
      <path
         id="path6071"
         d="m 220.29317,658.82041 a 175.41725,175.41725 0 0 0 18.71875,18.61719 l 0,-264.46484 a 175.41725,175.41725 0 0 0 -18.71875,18.81836 l 0,227.02929 z"
         style="fill:#0000ff;fill-opacity:0;stroke:#ff0000;stroke-width:3.49621391;stroke-opacity:1"
         inkscape:connector-curvature="0" />
      <path
         id="path5613"
         d="m 184.85957,592.78526 a 175.41725,175.41725 0 0 0 18.71875,42.79101 l 0,-180.5039 a 175.41725,175.41725 0 0 0 -18.71875,43.09961 l 0,94.61328 z"
         style="fill:#0000ff;fill-opacity:0;stroke:#ff0000;stroke-width:3.49621391;stroke-opacity:1"
         inkscape:connector-curvature="0" />
      <circle
         transform="matrix(0,-1,1,0,0,0)"
         r="6.5948539"
         cy="495.39999"
         cx="-686.94202"
         id="path5615"
         style="fill:#0000ff;fill-opacity:0;stroke:#0000ff;stroke-width:0.98352098;stroke-opacity:1" />
      <circle
         transform="matrix(0,-1,1,0,0,0)"
         r="6.5948539"
         cy="211.93544"
         cx="-686.94202"
         id="path5615-2"
         style="fill:#0000ff;fill-opacity:0;stroke:#0000ff;stroke-width:0.98352098;stroke-opacity:1" />
      <circle
         transform="matrix(0,-1,1,0,0,0)"
         r="6.5948539"
         cy="211.93544"
         cx="-403.47748"
         id="path5615-2-9"
         style="fill:#0000ff;fill-opacity:0;stroke:#0000ff;stroke-width:0.98352098;stroke-opacity:1" />
      <circle
         transform="matrix(0,-1,1,0,0,0)"
         r="6.5948539"
         cy="495.39999"
         cx="-403.47748"
         id="path5615-2-1"
         style="fill:#0000ff;fill-opacity:0;stroke:#0000ff;stroke-width:0.98352098;stroke-opacity:1" />
    </g>
    <path
       style="fill:#ffffff;fill-opacity:0;stroke:none;stroke-opacity:1"
       d="m 507.9882,632.03124 c -0.3661,0.62503 -1.3878,2.35401 -2.2705,3.84217 l -1.6049,2.70575 0,41.80409 0,41.80415 -8.7126,0 -8.7126,0 0,-30.07244 0,-30.07238 -1.2984,1.47244 c -1.9932,2.26041 -13.04668,13.16591 -14.93052,14.7307 l -1.67218,1.38896 -0.0144,21.27634 -0.0147,21.27638 -8.71257,0 -8.71256,0 0,-14.52099 c 0,-7.98652 -0.0634,-14.52094 -0.14085,-14.52094 -0.0775,0 -1.86734,1.06367 -3.97747,2.36371 -3.98738,2.45658 -8.15562,4.85043 -11.72845,6.73572 l -2.08344,1.09937 0,9.42153 0,9.4216 -8.83884,0 -8.83883,0 0,-5.5829 c 0,-5.2204 -0.0287,-5.5706 -0.44194,-5.3944 -1.55732,0.6641 -10.18644,3.4772 -13.51079,4.4044 l -3.97748,1.1095 0,2.7317 0,2.7317 -8.71257,0 -8.71256,0 0,-0.9725 0,-0.9724 -1.32583,0.2114 c -2.55732,0.4078 -10.46025,1.2036 -14.87419,1.4977 -9.2721,0.6179 -24.39311,0.062 -33.86563,-1.2448 l -3.21986,-0.4442 0,0.9624 0,0.9624 -8.83883,0 -8.83884,0 0,-2.737 0,-2.737 -3.8512,-1.0896 c -3.14552,-0.89 -11.83649,-3.711 -13.63706,-4.4265 -0.41287,-0.1641 -0.44195,0.1916 -0.44195,5.4072 l 0,5.5829 -8.71256,0 -8.71257,0 -0.01,-9.4071 -0.01,-9.40704 -4.69224,-2.52538 c -2.58075,-1.38896 -6.56628,-3.69021 -8.85674,-5.1139 -2.29046,-1.42368 -4.20877,-2.58851 -4.26292,-2.58851 -0.0542,0 -0.0984,6.53442 -0.0984,14.52094 l 0,14.52099 -8.71257,0 -8.71257,0 0,-21.16868 0,-21.16863 -2.68468,-2.36736 c -3.29176,-2.90266 -10.12305,-9.63388 -13.06548,-12.87407 l -2.17865,-2.39911 -7.5e-4,29.9889 -6.4e-4,29.98895 -8.83884,0 -8.83883,0 0,-41.91693 0,-41.91688 -1.03179,-1.68573 c -5.91834,-9.66943 -12.20919,-23.13111 -15.91551,-34.05731 l -0.85664,-2.52538 -0.0637,61.05109 -0.0637,61.05114 -8.71205,0 -8.71205,0 0,-177.02928 0,-177.02923 8.71205,0 8.71205,0 0.0637,61.05109 0.0637,61.0511 0.97003,-2.77792 c 3.9871,-11.4181 8.70267,-21.5629 15.10591,-32.49792 l 1.728,-2.95099 0,-41.93767 0,-41.93769 8.83883,0 8.83884,0 0,30.03691 0,30.03693 1.31345,-1.43699 c 2.90178,-3.17468 9.87093,-10.11781 13.14435,-13.09531 l 3.4724,-3.15847 0,-21.19154 0,-21.19153 8.71053,0 8.71053,0 0.0652,14.63231 0.0652,14.63231 2.52539,-1.63758 c 3.13531,-2.03306 8.40128,-5.09711 12.31123,-7.16335 l 2.96732,-1.56811 0,-9.44778 0,-9.4478 8.71257,0 8.71256,0 0,5.55584 c 0,3.05571 0.0852,5.55518 0.18941,5.55435 0.10417,0 2.00768,-0.63458 4.23001,-1.40841 2.22234,-0.7738 6.14299,-2.0099 8.71257,-2.74688 l 4.67195,-1.33997 0.0714,-2.80747 0.0714,-2.80746 8.83057,0 8.83056,0 0,1.03826 c 0,1.03341 0.004,1.03755 0.82075,0.89007 1.92034,-0.34674 7.14592,-0.95136 11.76574,-1.36141 6.11085,-0.54235 20.9667,-0.60642 26.68319,-0.11503 3.98299,0.34236 11.79882,1.21481 13.19512,1.4729 0.81749,0.15112 0.82075,0.14759 0.82075,-0.88653 l 0,-1.03826 8.71256,0 8.71257,0 0,2.77087 0,2.77085 1.45209,0.40383 c 3.48084,0.96801 11.50028,3.47303 13.7002,4.27951 1.31951,0.48372 2.48434,0.88108 2.58851,0.88305 0.10418,0.003 0.18941,-2.49656 0.18941,-5.55227 l 0,-5.55584 8.83883,0 8.83884,0 0,9.45694 0,9.45698 2.20971,1.18321 c 3.96497,2.12312 9.72532,5.46559 12.69004,7.36349 l 2.90419,1.85911 0.0652,-14.65987 0.0651,-14.65986 8.71055,0 8.71052,0 0,21.28618 0,21.28619 2.45118,2.13673 c 2.92141,2.54662 10.54156,10.0621 13.42456,13.24024 l 2.0544,2.26469 0,-30.10702 0,-30.10701 8.7126,0 8.7126,0 0,41.85819 0,41.8582 0.916,1.51523 c 0.5039,0.83337 1.5264,2.57043 2.2722,3.86014 l 1.3562,2.34492 -0.012,3.46346 -0.012,3.46346 -0.7742,-1.51523 c -0.4258,-0.83337 -1.4147,-2.65165 -2.1976,-4.04061 l -1.4233,-2.52538 -0.064,43.35292 c -0.035,23.84411 -0.035,62.93107 0,86.8599 l 0.064,43.50698 1.6334,-3.01724 c 0.8984,-1.65948 1.8914,-3.47181 2.2067,-4.02739 l 0.5732,-1.01015 0,3.40926 c 0,3.22803 -0.035,3.46968 -0.6648,4.54569 l 0,0 z m -4.845,8.22012 c -0.1166,0.13195 -1.327,1.88772 -2.6897,3.90171 -3.092,4.56964 -7.4195,10.34776 -10.586,14.13463 l -2.4222,2.89667 0,30.12269 0,30.12264 7.9549,0 7.955,0 0,-40.70911 c 0,-22.39003 -0.095,-40.60119 -0.212,-40.46923 z m -0.837,-185.13902 c -3.2087,-5.35878 -8.1947,-12.51119 -12.3121,-17.66173 l -2.4226,-3.03046 -0.064,55.34837 c -0.035,30.4416 -0.035,80.30181 0,110.80046 l 0.064,55.45208 1.669,-2.08279 c 4.214,-5.25894 7.4179,-9.75461 11.3799,-15.96799 l 2.7348,-4.28874 0,-88.40869 0,-88.4087 -1.049,-1.75181 z m -6.906,-86.22584 -7.9549,0 0,30.21344 0,30.21343 1.3453,1.54324 c 3.4782,3.98997 7.8544,9.78105 11.8404,15.66863 l 2.7242,4.02384 0,-40.83128 0,-40.8313 -7.955,0 z m -11.5445,61.20368 c -3.0036,-3.44293 -11.55914,-12.09976 -13.77638,-13.93942 l -1.32188,-1.0968 0,130.08953 c 0,124.13316 0.0205,130.07864 0.44479,129.8515 1.39702,-0.74766 13.86707,-13.47463 16.70597,-17.05018 l 0.7794,-0.98174 0,-111.81337 0,-111.81337 -2.8319,-3.24615 z m -16.17155,250.61618 c -0.17362,0.13731 -1.89502,1.50983 -3.82532,3.05005 -1.9303,1.54023 -5.36798,4.12431 -7.63928,5.74241 l -4.12963,2.94199 0,14.49446 0,14.49443 7.95495,0 7.95495,0 0,-20.48647 c 0,-16.354 -0.0637,-20.43615 -0.31567,-20.23687 z M 467.0528,413.5505 c -2.15271,-2.03528 -10.14221,-8.28904 -13.83952,-10.83288 l -1.12336,-0.77289 0,143.21554 0,143.21553 0.74918,-0.44255 c 1.28176,-0.75715 8.34964,-6.14536 11.83568,-9.02296 l 3.32504,-2.74469 0,-130.85986 0,-130.85987 -0.94702,-0.89537 z m -7.00793,-44.664 -7.95495,0 0.006,14.58408 0.006,14.58408 1.67895,1.13642 c 2.78911,1.88782 8.62936,6.25592 11.36058,8.4969 1.41416,1.16033 2.63582,2.1097 2.71479,2.1097 0.079,0 0.14356,-9.20502 0.14356,-20.45559 l 0,-20.45559 -7.95495,0 -10e-5,0 z m -11.30108,30.85309 c -4.46116,-2.99126 -14.97842,-9.07718 -15.23798,-8.81762 -0.0573,0.0573 -0.0756,69.54031 -0.0408,154.40677 l 0.0633,154.30266 2.52538,-1.36888 c 5.30398,-2.87501 14.66251,-8.61726 15.08529,-9.2561 0.10205,-0.15421 0.18728,-64.91181 0.1894,-143.90578 l 0.004,-143.62543 -2.58852,-1.73562 8e-5,0 z m -19.95051,305.77735 c -1.97927,0.95244 -5.3033,2.4275 -7.38674,3.27792 -2.08344,0.85043 -4.04377,1.65224 -4.35629,1.78184 -0.56376,0.2338 -0.56821,0.2772 -0.56821,5.5443 l 0,5.3087 7.95495,0 7.95495,0 0,-8.8222 0,-8.82225 -3.59866,1.73169 z m 2.14657,-316.03257 c -4.08026,-2.02472 -13.67122,-6.20319 -14.23833,-6.20319 -0.12405,0 -0.21948,70.43664 -0.21948,162.00116 l 0,162.00117 1.07329,-0.41746 c 2.59331,-1.00868 8.16981,-3.44414 11.36422,-4.96315 l 3.47239,-1.65121 0,-155.02338 0,-155.0234 -1.45209,-0.72054 z m -6.50286,-20.59787 -7.95495,0 0,5.40997 0,5.41 0.94702,0.30865 c 1.23345,0.402 9.34353,3.88849 12.50064,5.37397 l 2.46224,1.15854 0,-8.83058 0,-8.83055 -7.95495,0 z m -9.40704,13.68519 c -6.4234,-2.34764 -15.89859,-5.35143 -16.88057,-5.35143 -0.30483,0 -0.35516,23.81776 -0.35516,168.08115 0,159.96007 0.0214,168.07469 0.44194,167.94689 0.24307,-0.074 2.2034,-0.6425 4.35628,-1.2636 3.74654,-1.081 10.24102,-3.24341 12.2027,-4.06306 l 0.92929,-0.38828 0,-162.35392 0,-162.35392 -0.69448,-0.25383 z M 396.66604,716.9722 c -0.73687,0.2828 -8.4119,1.9258 -11.37246,2.4346 -4.36905,0.7508 -4.16688,0.683 -4.16688,1.3964 l 0,0.6265 7.95495,0 7.95496,0 0,-2.2998 c 0,-1.9179 -0.0616,-2.2763 -0.37057,-2.1577 z m -1.52347,-340.55466 c -2.08093,-0.53687 -11.08595,-2.37903 -12.81631,-2.62185 l -1.19956,-0.16832 0,171.62203 0,171.622 0.69448,-0.1225 c 3.43378,-0.606 9.36655,-1.8071 11.99575,-2.4286 l 3.22005,-0.7611 -0.0633,-168.3428 -0.0633,-168.34277 -1.76777,-0.45609 z m -6.06092,-7.53104 -7.95495,0 0,0.69928 0,0.6993 3.34613,0.56584 c 1.84038,0.3112 5.10759,0.96601 7.26047,1.45512 2.15289,0.48912 4.22686,0.9568 4.60883,1.0393 l 0.69448,0.14998 0,-2.30441 0,-2.30441 -7.95496,0 z m -8.90196,4.54107 c -0.10418,-0.003 -1.32583,-0.16466 -2.71479,-0.36025 -2.79626,-0.39378 -9.08165,-1.0327 -12.69004,-1.28996 l -2.33598,-0.16655 0,173.5205 0,173.52049 1.47467,0 c 2.35983,0 14.95645,-1.2916 16.13987,-1.655 0.25213,-0.077 0.31567,-34.66371 0.31567,-171.83075 0,-94.45363 -0.0852,-171.73593 -0.1894,-171.73848 z m -20.0507,-1.85343 c -2.00899,-0.20999 -10.79636,-0.20999 -12.80535,0 l -1.55228,0.16223 0,173.584 0,173.58403 7.95496,0 7.95495,0 0,-173.58403 0,-173.584 -1.55228,-0.16223 z m -17.57749,0.19824 c -3.76288,0.25678 -10.0093,0.89197 -12.75151,1.29666 -1.35332,0.19973 -2.51824,0.36315 -2.5887,0.36315 -0.0705,0 -0.0996,77.30508 -0.0648,171.78905 l 0.0633,171.78906 3.06184,0.4154 c 4.10709,0.5572 11.3126,1.2261 13.20842,1.2261 l 1.53368,0 0,-173.52371 0,-173.52372 -2.46225,0.16801 z M 326.2228,720.167 c -0.78995,0 -14.06122,-2.7034 -15.61737,-3.1813 -0.39838,-0.1223 -0.44194,0.09 -0.44194,2.1542 l 0,2.2898 8.08122,0 8.08122,0 0,-0.6313 c 0,-0.3472 -0.0464,-0.6314 -0.10313,-0.6314 z m -1.2227,-346.37416 c -1.69646,0.22157 -9.19076,1.73448 -12.31123,2.4853 l -2.39911,0.57728 -0.0633,168.37281 c -0.0348,92.60506 -0.002,168.37287 0.0729,168.37287 0.0749,0 2.09213,0.4491 4.48275,0.998 4.97006,1.1413 11.21182,2.2803 11.40997,2.0822 0.0737,-0.074 0.13393,-77.29269 0.13393,-171.5978 l 0,-171.46385 -1.32583,0.17319 z m -6.81853,-4.84674 -8.01808,-0.0667 0,2.2764 c 0,1.25201 0.0917,2.27638 0.20377,2.27638 0.11208,0 1.90195,-0.38649 3.97748,-0.85883 2.07553,-0.47238 5.47833,-1.16029 7.56177,-1.52874 4.62839,-0.8185 4.47283,-0.76648 4.374,-1.4625 l -0.0809,-0.56935 -8.01809,-0.0667 z m -9.01667,8.27416 c -0.79512,0 -11.20765,3.2781 -16.86868,5.31062 l -0.82094,0.29477 0.0633,162.39221 0.0633,162.39222 3.03046,1.0973 c 3.11475,1.12782 9.69806,3.21672 12.94258,4.10672 l 1.8309,0.5022 0,-168.048 c 0,-106.48879 -0.0883,-168.04804 -0.24097,-168.04804 z M 290.43694,710.5706 c -0.42583,0 -8.76031,-3.53359 -12.40893,-5.26105 l -3.21986,-1.52446 0,8.82231 0,8.8223 7.95495,0 7.95495,0 0,-5.4295 c 0,-3.8193 -0.0834,-5.4296 -0.28111,-5.4296 z m 0.15992,-327.28942 c -0.58907,0 -9.03854,3.68996 -13.00771,5.68056 l -2.781,1.39472 0,154.88952 0,154.88952 3.72494,1.7918 c 4.069,1.9573 4.81449,2.28952 9.21764,4.10778 l 2.96732,1.22535 0,-161.98963 c 0,-89.09429 -0.0545,-161.98962 -0.12119,-161.98962 z m -7.83376,-14.39468 -7.95495,0 0,8.83884 c 0,4.86136 0.0397,8.83883 0.0883,8.83883 0.0485,0 1.50165,-0.67104 3.22914,-1.49121 3.14187,-1.49167 8.77055,-3.92131 11.26669,-4.86328 l 1.32582,-0.50033 0,-5.41141 0,-5.41144 -7.95495,0 z m -8.88065,21.97082 c -0.63486,0 -9.84968,5.32365 -14.78304,8.54059 l -2.97473,1.93974 0.061,143.9421 0.061,143.94209 4.19507,2.6563 c 4.20825,2.66464 7.28311,4.46863 11.39916,6.68779 l 2.20971,1.19136 0,-154.44999 c 0,-84.9475 -0.0756,-154.44998 -0.16808,-154.44998 z m -20.85537,299.99943 c -3.43856,-2.3789 -8.04402,-5.83903 -10.98576,-8.2537 l -2.58851,-2.12474 0,20.47572 0,20.47567 7.95495,0 7.95495,0 0,-14.47852 0,-14.47856 -2.33563,-1.61587 z m 2.01996,-288.73623 c -1.46565,0.84194 -8.50402,6.17024 -12.2481,9.27227 l -3.34613,2.77233 0,130.9993 0,130.99931 1.57836,1.37381 c 3.67858,3.20185 13.62205,10.80052 14.14214,10.80725 0.10417,10e-4 0.1894,-64.43936 0.1894,-143.20157 0,-114.49157 -0.0633,-143.16768 -0.31567,-143.0227 z m -7.63928,-33.23402 -7.95495,0 0,20.47049 c 0,16.30889 0.0642,20.43205 0.31567,20.28139 0.17362,-0.104 1.22481,-0.94732 2.33598,-1.87406 2.26601,-1.88992 8.39077,-6.49266 11.32728,-8.51243 l 1.93097,-1.32815 0,-14.51862 0,-14.51862 -7.95495,0 z m -8.95279,46.21448 c -0.38335,0 -12.59348,12.22232 -15.2633,15.27853 l -2.42668,2.77787 0,112.03753 0,112.03753 2.84105,3.2444 c 3.06181,3.4965 10.30587,10.83516 13.26537,13.4386 l 1.82378,1.60437 0,-130.20941 c 0,-82.1877 -0.0886,-130.20942 -0.24022,-130.20942 z m -20.4816,243.80909 c -4.49352,-5.40605 -9.08921,-11.60538 -12.48694,-16.8442 -0.69448,-1.07079 -1.34792,-1.94835 -1.4521,-1.95015 -0.10417,-0.002 -0.1894,18.29313 -0.1894,40.65538 l 0,40.6586 8.08122,0 8.08122,0 0,-30.03626 0,-30.03631 -2.034,-2.44706 z m 1.8098,-224.4773 c -3.00228,3.21264 -12.39347,16.43423 -15.07721,21.22677 l -0.86317,1.54139 0.0642,88.23591 0.0642,88.2359 1.73487,2.77792 c 2.42483,3.88271 6.1395,9.30232 8.82774,12.87944 2.53575,3.37422 5.195,6.69226 5.36352,6.69226 0.0605,0 0.11004,-49.91163 0.11004,-110.91475 0,-64.60962 -0.0936,-110.81459 -0.2242,-110.67484 z M 212.0445,368.8865 c -6.13792,0 -7.9904,0.0724 -8.08294,0.31567 -0.066,0.17362 -0.0909,18.55524 -0.0552,40.84805 l 0.0649,40.53237 2.62294,-3.91434 c 3.13107,-4.67264 7.38805,-10.3604 10.86812,-14.52095 l 2.53481,-3.03045 0.005,-30.11518 0.005,-30.11517 -7.96287,0 z m -10.24854,91.79761 c -6.17079,10.93863 -11.49757,23.82954 -15.54873,37.62819 l -0.96385,3.28299 0,43.56283 0,43.56283 1.06643,3.6618 c 2.93994,10.09484 6.22215,18.78832 10.498,27.80572 1.53671,3.24078 5.15652,10.1155 5.8996,11.20448 0.28515,0.41789 0.33917,-13.47423 0.33532,-86.24177 l -0.005,-86.73991 -1.28217,2.27284 0,0 z M 183.6294,594.6556 c -9.21343,-31.85368 -9.29612,-66.72886 -0.23247,-98.03885 l 1.00256,-3.46331 0,-62.13347 0,-62.13347 -7.95495,0 -7.95495,0 0,176.27162 0,176.27158 7.95495,0 7.95495,0 -0.002,-62.06121 -0.002,-62.06124 -0.76697,-2.65165 z m 0.669,-88.36731 c -0.17472,0.18185 -1.88576,9.04658 -2.40877,12.4796 -3.04213,19.96832 -2.56185,40.89042 1.39422,60.73542 0.48455,2.43068 0.92483,4.53306 0.97839,4.67195 0.0536,0.1389 0.10635,-17.35252 0.11732,-38.86983 0.011,-21.5173 -0.0256,-39.07501 -0.0812,-39.01714 z"
       id="path5978"
       inkscape:connector-curvature="0" />
    <path
       style="fill:#ffffff;fill-opacity:0;stroke:none;stroke-opacity:1"
       d="m 507.9882,632.03124 c -0.3661,0.62503 -1.3878,2.35401 -2.2705,3.84217 l -1.6049,2.70575 0,41.80409 0,41.80415 -8.7126,0 -8.7126,0 0,-30.07244 0,-30.07238 -1.2984,1.47244 c -1.9932,2.26041 -13.04668,13.16591 -14.93052,14.7307 l -1.67218,1.38896 -0.0144,21.27634 -0.0147,21.27638 -8.71257,0 -8.71256,0 0,-14.52099 c 0,-7.98652 -0.0634,-14.52094 -0.14085,-14.52094 -0.0775,0 -1.86734,1.06367 -3.97747,2.36371 -3.98738,2.45658 -8.15562,4.85043 -11.72845,6.73572 l -2.08344,1.09937 0,9.42153 0,9.4216 -8.83884,0 -8.83883,0 0,-5.5829 c 0,-5.2204 -0.0287,-5.5706 -0.44194,-5.3944 -1.55732,0.6641 -10.18644,3.4772 -13.51079,4.4044 l -3.97748,1.1095 0,2.7317 0,2.7317 -8.71257,0 -8.71256,0 0,-0.9725 0,-0.9724 -1.32583,0.2114 c -2.55732,0.4078 -10.46025,1.2036 -14.87419,1.4977 -9.2721,0.6179 -24.39311,0.062 -33.86563,-1.2448 l -3.21986,-0.4442 0,0.9624 0,0.9624 -8.83883,0 -8.83884,0 0,-2.737 0,-2.737 -3.8512,-1.0896 c -3.14552,-0.89 -11.83649,-3.711 -13.63706,-4.4265 -0.41287,-0.1641 -0.44195,0.1916 -0.44195,5.4072 l 0,5.5829 -8.71256,0 -8.71257,0 -0.01,-9.4071 -0.01,-9.40704 -4.69224,-2.52538 c -2.58075,-1.38896 -6.56628,-3.69021 -8.85674,-5.1139 -2.29046,-1.42368 -4.20877,-2.58851 -4.26292,-2.58851 -0.0542,0 -0.0984,6.53442 -0.0984,14.52094 l 0,14.52099 -8.71257,0 -8.71257,0 0,-21.16868 0,-21.16863 -2.68468,-2.36736 c -3.29176,-2.90266 -10.12305,-9.63388 -13.06548,-12.87407 l -2.17865,-2.39911 -7.5e-4,29.9889 -6.4e-4,29.98895 -8.83884,0 -8.83883,0 0,-41.91693 0,-41.91688 -1.03179,-1.68573 c -5.91834,-9.66943 -12.20919,-23.13111 -15.91551,-34.05731 l -0.85664,-2.52538 -0.0637,61.05109 -0.0637,61.05114 -8.71205,0 -8.71205,0 0,-177.02928 0,-177.02923 8.71205,0 8.71205,0 0.0637,61.05109 0.0637,61.0511 0.97003,-2.77792 c 3.9871,-11.4181 8.70267,-21.5629 15.10591,-32.49792 l 1.728,-2.95099 0,-41.93767 0,-41.93769 8.83883,0 8.83884,0 0,30.03691 0,30.03693 1.31345,-1.43699 c 2.90178,-3.17468 9.87093,-10.11781 13.14435,-13.09531 l 3.4724,-3.15847 0,-21.19154 0,-21.19153 8.71053,0 8.71053,0 0.0652,14.63231 0.0652,14.63231 2.52539,-1.63758 c 3.13531,-2.03306 8.40128,-5.09711 12.31123,-7.16335 l 2.96732,-1.56811 0,-9.44778 0,-9.4478 8.71257,0 8.71256,0 0,5.55584 c 0,3.05571 0.0852,5.55518 0.18941,5.55435 0.10417,0 2.00768,-0.63458 4.23001,-1.40841 2.22234,-0.7738 6.14299,-2.0099 8.71257,-2.74688 l 4.67195,-1.33997 0.0714,-2.80747 0.0714,-2.80746 8.83057,0 8.83056,0 0,1.03826 c 0,1.03341 0.004,1.03755 0.82075,0.89007 1.92034,-0.34674 7.14592,-0.95136 11.76574,-1.36141 6.11085,-0.54235 20.9667,-0.60642 26.68319,-0.11503 3.98299,0.34236 11.79882,1.21481 13.19512,1.4729 0.81749,0.15112 0.82075,0.14759 0.82075,-0.88653 l 0,-1.03826 8.71256,0 8.71257,0 0,2.77087 0,2.77085 1.45209,0.40383 c 3.48084,0.96801 11.50028,3.47303 13.7002,4.27951 1.31951,0.48372 2.48434,0.88108 2.58851,0.88305 0.10418,0.003 0.18941,-2.49656 0.18941,-5.55227 l 0,-5.55584 8.83883,0 8.83884,0 0,9.45694 0,9.45698 2.20971,1.18321 c 3.96497,2.12312 9.72532,5.46559 12.69004,7.36349 l 2.90419,1.85911 0.0652,-14.65987 0.0651,-14.65986 8.71055,0 8.71052,0 0,21.28618 0,21.28619 2.45118,2.13673 c 2.92141,2.54662 10.54156,10.0621 13.42456,13.24024 l 2.0544,2.26469 0,-30.10702 0,-30.10701 8.7126,0 8.7126,0 0,41.85819 0,41.8582 0.916,1.51523 c 0.5039,0.83337 1.5264,2.57043 2.2722,3.86014 l 1.3562,2.34492 -0.012,3.46346 -0.012,3.46346 -0.7742,-1.51523 c -0.4258,-0.83337 -1.4147,-2.65165 -2.1976,-4.04061 l -1.4233,-2.52538 -0.064,43.35292 c -0.035,23.84411 -0.035,62.93107 0,86.8599 l 0.064,43.50698 1.6334,-3.01724 c 0.8984,-1.65948 1.8914,-3.47181 2.2067,-4.02739 l 0.5732,-1.01015 0,3.40926 c 0,3.22803 -0.035,3.46968 -0.6648,4.54569 l 0,0 z m -4.845,8.22012 c -0.1166,0.13195 -1.327,1.88772 -2.6897,3.90171 -3.092,4.56964 -7.4195,10.34776 -10.586,14.13463 l -2.4222,2.89667 0,30.12269 0,30.12264 7.9549,0 7.955,0 0,-40.70911 c 0,-22.39003 -0.095,-40.60119 -0.212,-40.46923 z m -0.837,-185.13902 c -3.2087,-5.35878 -8.1947,-12.51119 -12.3121,-17.66173 l -2.4226,-3.03046 -0.064,55.34837 c -0.035,30.4416 -0.035,80.30181 0,110.80046 l 0.064,55.45208 1.669,-2.08279 c 4.214,-5.25894 7.4179,-9.75461 11.3799,-15.96799 l 2.7348,-4.28874 0,-88.40869 0,-88.4087 -1.049,-1.75181 z m -6.906,-86.22584 -7.9549,0 0,30.21344 0,30.21343 1.3453,1.54324 c 3.4782,3.98997 7.8544,9.78105 11.8404,15.66863 l 2.7242,4.02384 0,-40.83128 0,-40.8313 -7.955,0 z m -11.5445,61.20368 c -3.0036,-3.44293 -11.55914,-12.09976 -13.77638,-13.93942 l -1.32188,-1.0968 0,130.08953 c 0,124.13316 0.0205,130.07864 0.44479,129.8515 1.39702,-0.74766 13.86707,-13.47463 16.70597,-17.05018 l 0.7794,-0.98174 0,-111.81337 0,-111.81337 -2.8319,-3.24615 z m -16.17155,250.61618 c -0.17362,0.13731 -1.89502,1.50983 -3.82532,3.05005 -1.9303,1.54023 -5.36798,4.12431 -7.63928,5.74241 l -4.12963,2.94199 0,14.49446 0,14.49443 7.95495,0 7.95495,0 0,-20.48647 c 0,-16.354 -0.0637,-20.43615 -0.31567,-20.23687 z M 467.0528,413.5505 c -2.15271,-2.03528 -10.14221,-8.28904 -13.83952,-10.83288 l -1.12336,-0.77289 0,143.21554 0,143.21553 0.74918,-0.44255 c 1.28176,-0.75715 8.34964,-6.14536 11.83568,-9.02296 l 3.32504,-2.74469 0,-130.85986 0,-130.85987 -0.94702,-0.89537 z m -7.00793,-44.664 -7.95495,0 0.006,14.58408 0.006,14.58408 1.67895,1.13642 c 2.78911,1.88782 8.62936,6.25592 11.36058,8.4969 1.41416,1.16033 2.63582,2.1097 2.71479,2.1097 0.079,0 0.14356,-9.20502 0.14356,-20.45559 l 0,-20.45559 -7.95495,0 -10e-5,0 z m -11.30108,30.85309 c -4.46116,-2.99126 -14.97842,-9.07718 -15.23798,-8.81762 -0.0573,0.0573 -0.0756,69.54031 -0.0408,154.40677 l 0.0633,154.30266 2.52538,-1.36888 c 5.30398,-2.87501 14.66251,-8.61726 15.08529,-9.2561 0.10205,-0.15421 0.18728,-64.91181 0.1894,-143.90578 l 0.004,-143.62543 -2.58852,-1.73562 8e-5,0 z m -19.95051,305.77735 c -1.97927,0.95244 -5.3033,2.4275 -7.38674,3.27792 -2.08344,0.85043 -4.04377,1.65224 -4.35629,1.78184 -0.56376,0.2338 -0.56821,0.2772 -0.56821,5.5443 l 0,5.3087 7.95495,0 7.95495,0 0,-8.8222 0,-8.82225 -3.59866,1.73169 z m 2.14657,-316.03257 c -4.08026,-2.02472 -13.67122,-6.20319 -14.23833,-6.20319 -0.12405,0 -0.21948,70.43664 -0.21948,162.00116 l 0,162.00117 1.07329,-0.41746 c 2.59331,-1.00868 8.16981,-3.44414 11.36422,-4.96315 l 3.47239,-1.65121 0,-155.02338 0,-155.0234 -1.45209,-0.72054 z m -6.50286,-20.59787 -7.95495,0 0,5.40997 0,5.41 0.94702,0.30865 c 1.23345,0.402 9.34353,3.88849 12.50064,5.37397 l 2.46224,1.15854 0,-8.83058 0,-8.83055 -7.95495,0 z m -9.40704,13.68519 c -6.4234,-2.34764 -15.89859,-5.35143 -16.88057,-5.35143 -0.30483,0 -0.35516,23.81776 -0.35516,168.08115 0,159.96007 0.0214,168.07469 0.44194,167.94689 0.24307,-0.074 2.2034,-0.6425 4.35628,-1.2636 3.74654,-1.081 10.24102,-3.24341 12.2027,-4.06306 l 0.92929,-0.38828 0,-162.35392 0,-162.35392 -0.69448,-0.25383 z M 396.66604,716.9722 c -0.73687,0.2828 -8.4119,1.9258 -11.37246,2.4346 -4.36905,0.7508 -4.16688,0.683 -4.16688,1.3964 l 0,0.6265 7.95495,0 7.95496,0 0,-2.2998 c 0,-1.9179 -0.0616,-2.2763 -0.37057,-2.1577 z m -1.52347,-340.55466 c -2.08093,-0.53687 -11.08595,-2.37903 -12.81631,-2.62185 l -1.19956,-0.16832 0,171.62203 0,171.622 0.69448,-0.1225 c 3.43378,-0.606 9.36655,-1.8071 11.99575,-2.4286 l 3.22005,-0.7611 -0.0633,-168.3428 -0.0633,-168.34277 -1.76777,-0.45609 z m -6.06092,-7.53104 -7.95495,0 0,0.69928 0,0.6993 3.34613,0.56584 c 1.84038,0.3112 5.10759,0.96601 7.26047,1.45512 2.15289,0.48912 4.22686,0.9568 4.60883,1.0393 l 0.69448,0.14998 0,-2.30441 0,-2.30441 -7.95496,0 z m -8.90196,4.54107 c -0.10418,-0.003 -1.32583,-0.16466 -2.71479,-0.36025 -2.79626,-0.39378 -9.08165,-1.0327 -12.69004,-1.28996 l -2.33598,-0.16655 0,173.5205 0,173.52049 1.47467,0 c 2.35983,0 14.95645,-1.2916 16.13987,-1.655 0.25213,-0.077 0.31567,-34.66371 0.31567,-171.83075 0,-94.45363 -0.0852,-171.73593 -0.1894,-171.73848 z m -20.0507,-1.85343 c -2.00899,-0.20999 -10.79636,-0.20999 -12.80535,0 l -1.55228,0.16223 0,173.584 0,173.58403 7.95496,0 7.95495,0 0,-173.58403 0,-173.584 -1.55228,-0.16223 z m -17.57749,0.19824 c -3.76288,0.25678 -10.0093,0.89197 -12.75151,1.29666 -1.35332,0.19973 -2.51824,0.36315 -2.5887,0.36315 -0.0705,0 -0.0996,77.30508 -0.0648,171.78905 l 0.0633,171.78906 3.06184,0.4154 c 4.10709,0.5572 11.3126,1.2261 13.20842,1.2261 l 1.53368,0 0,-173.52371 0,-173.52372 -2.46225,0.16801 z M 326.2228,720.167 c -0.78995,0 -14.06122,-2.7034 -15.61737,-3.1813 -0.39838,-0.1223 -0.44194,0.09 -0.44194,2.1542 l 0,2.2898 8.08122,0 8.08122,0 0,-0.6313 c 0,-0.3472 -0.0464,-0.6314 -0.10313,-0.6314 z m -1.2227,-346.37416 c -1.69646,0.22157 -9.19076,1.73448 -12.31123,2.4853 l -2.39911,0.57728 -0.0633,168.37281 c -0.0348,92.60506 -0.002,168.37287 0.0729,168.37287 0.0749,0 2.09213,0.4491 4.48275,0.998 4.97006,1.1413 11.21182,2.2803 11.40997,2.0822 0.0737,-0.074 0.13393,-77.29269 0.13393,-171.5978 l 0,-171.46385 -1.32583,0.17319 z m -6.81853,-4.84674 -8.01808,-0.0667 0,2.2764 c 0,1.25201 0.0917,2.27638 0.20377,2.27638 0.11208,0 1.90195,-0.38649 3.97748,-0.85883 2.07553,-0.47238 5.47833,-1.16029 7.56177,-1.52874 4.62839,-0.8185 4.47283,-0.76648 4.374,-1.4625 l -0.0809,-0.56935 -8.01809,-0.0667 z m -9.01667,8.27416 c -0.79512,0 -11.20765,3.2781 -16.86868,5.31062 l -0.82094,0.29477 0.0633,162.39221 0.0633,162.39222 3.03046,1.0973 c 3.11475,1.12782 9.69806,3.21672 12.94258,4.10672 l 1.8309,0.5022 0,-168.048 c 0,-106.48879 -0.0883,-168.04804 -0.24097,-168.04804 z M 290.43694,710.5706 c -0.42583,0 -8.76031,-3.53359 -12.40893,-5.26105 l -3.21986,-1.52446 0,8.82231 0,8.8223 7.95495,0 7.95495,0 0,-5.4295 c 0,-3.8193 -0.0834,-5.4296 -0.28111,-5.4296 z m 0.15992,-327.28942 c -0.58907,0 -9.03854,3.68996 -13.00771,5.68056 l -2.781,1.39472 0,154.88952 0,154.88952 3.72494,1.7918 c 4.069,1.9573 4.81449,2.28952 9.21764,4.10778 l 2.96732,1.22535 0,-161.98963 c 0,-89.09429 -0.0545,-161.98962 -0.12119,-161.98962 z m -7.83376,-14.39468 -7.95495,0 0,8.83884 c 0,4.86136 0.0397,8.83883 0.0883,8.83883 0.0485,0 1.50165,-0.67104 3.22914,-1.49121 3.14187,-1.49167 8.77055,-3.92131 11.26669,-4.86328 l 1.32582,-0.50033 0,-5.41141 0,-5.41144 -7.95495,0 z m -8.88065,21.97082 c -0.63486,0 -9.84968,5.32365 -14.78304,8.54059 l -2.97473,1.93974 0.061,143.9421 0.061,143.94209 4.19507,2.6563 c 4.20825,2.66464 7.28311,4.46863 11.39916,6.68779 l 2.20971,1.19136 0,-154.44999 c 0,-84.9475 -0.0756,-154.44998 -0.16808,-154.44998 z m -20.85537,299.99943 c -3.43856,-2.3789 -8.04402,-5.83903 -10.98576,-8.2537 l -2.58851,-2.12474 0,20.47572 0,20.47567 7.95495,0 7.95495,0 0,-14.47852 0,-14.47856 -2.33563,-1.61587 z m 2.01996,-288.73623 c -1.46565,0.84194 -8.50402,6.17024 -12.2481,9.27227 l -3.34613,2.77233 0,130.9993 0,130.99931 1.57836,1.37381 c 3.67858,3.20185 13.62205,10.80052 14.14214,10.80725 0.10417,10e-4 0.1894,-64.43936 0.1894,-143.20157 0,-114.49157 -0.0633,-143.16768 -0.31567,-143.0227 z m -7.63928,-33.23402 -7.95495,0 0,20.47049 c 0,16.30889 0.0642,20.43205 0.31567,20.28139 0.17362,-0.104 1.22481,-0.94732 2.33598,-1.87406 2.26601,-1.88992 8.39077,-6.49266 11.32728,-8.51243 l 1.93097,-1.32815 0,-14.51862 0,-14.51862 -7.95495,0 z m -8.95279,46.21448 c -0.38335,0 -12.59348,12.22232 -15.2633,15.27853 l -2.42668,2.77787 0,112.03753 0,112.03753 2.84105,3.2444 c 3.06181,3.4965 10.30587,10.83516 13.26537,13.4386 l 1.82378,1.60437 0,-130.20941 c 0,-82.1877 -0.0886,-130.20942 -0.24022,-130.20942 z m -20.4816,243.80909 c -4.49352,-5.40605 -9.08921,-11.60538 -12.48694,-16.8442 -0.69448,-1.07079 -1.34792,-1.94835 -1.4521,-1.95015 -0.10417,-0.002 -0.1894,18.29313 -0.1894,40.65538 l 0,40.6586 8.08122,0 8.08122,0 0,-30.03626 0,-30.03631 -2.034,-2.44706 z m 1.8098,-224.4773 c -3.00228,3.21264 -12.39347,16.43423 -15.07721,21.22677 l -0.86317,1.54139 0.0642,88.23591 0.0642,88.2359 1.73487,2.77792 c 2.42483,3.88271 6.1395,9.30232 8.82774,12.87944 2.53575,3.37422 5.195,6.69226 5.36352,6.69226 0.0605,0 0.11004,-49.91163 0.11004,-110.91475 0,-64.60962 -0.0936,-110.81459 -0.2242,-110.67484 z M 212.0445,368.8865 c -6.13792,0 -7.9904,0.0724 -8.08294,0.31567 -0.066,0.17362 -0.0909,18.55524 -0.0552,40.84805 l 0.0649,40.53237 2.62294,-3.91434 c 3.13107,-4.67264 7.38805,-10.3604 10.86812,-14.52095 l 2.53481,-3.03045 0.005,-30.11518 0.005,-30.11517 -7.96287,0 z m -10.24854,91.79761 c -6.17079,10.93863 -11.49757,23.82954 -15.54873,37.62819 l -0.96385,3.28299 0,43.56283 0,43.56283 1.06643,3.6618 c 2.93994,10.09484 6.22215,18.78832 10.498,27.80572 1.53671,3.24078 5.15652,10.1155 5.8996,11.20448 0.28515,0.41789 0.33917,-13.47423 0.33532,-86.24177 l -0.005,-86.73991 -1.28217,2.27284 0,0 z M 183.6294,594.6556 c -9.21343,-31.85368 -9.29612,-66.72886 -0.23247,-98.03885 l 1.00256,-3.46331 0,-62.13347 0,-62.13347 -7.95495,0 -7.95495,0 0,176.27162 0,176.27158 7.95495,0 7.95495,0 -0.002,-62.06121 -0.002,-62.06124 -0.76697,-2.65165 z m 0.669,-88.36731 c -0.17472,0.18185 -1.88576,9.04658 -2.40877,12.4796 -3.04213,19.96832 -2.56185,40.89042 1.39422,60.73542 0.48455,2.43068 0.92483,4.53306 0.97839,4.67195 0.0536,0.1389 0.10635,-17.35252 0.11732,-38.86983 0.011,-21.5173 -0.0256,-39.07501 -0.0812,-39.01714 z"
       id="path5980"
       inkscape:connector-curvature="0" />
    <path
       style="fill:#ffffff;fill-opacity:0;stroke:none;stroke-opacity:1"
       d="m 168.14794,715.6742 -0.49107,0 0,-40.30136 0,-40.30134 0.49107,0 0.49107,0 0,40.30134 0,40.30136 -0.49107,0 z"
       id="path5982"
       inkscape:connector-curvature="0" />
    <path
       style="fill:#ffffff;fill-opacity:0;stroke:none;stroke-opacity:1"
       d="m 168.14794,715.6742 -0.49107,0 0,-40.30136 0,-40.30134 0.49107,0 0.49107,0 0,40.30134 0,40.30136 -0.49107,0 z"
       id="path5984"
       inkscape:connector-curvature="0" />
    <circle
       style="fill:#0000ff;fill-opacity:0;stroke:#ff0000;stroke-width:1.68413734;stroke-opacity:1"
       id="path6261"
       cx="145.27559"
       cy="977.95276"
       r="73.567383" />
    <circle
       style="fill:#0000ff;fill-opacity:0;stroke:#ff0000;stroke-width:0.61375397;stroke-opacity:1"
       id="path6265"
       cx="228.5433"
       cy="979.72443"
       r="5.0080838" />
    <circle
       style="fill:#0000ff;fill-opacity:0;stroke:#ff0000;stroke-width:0.62869555;stroke-opacity:1"
       id="path6267"
       cx="62.007874"
       cy="979.72443"
       r="5.0006127" />
    <rect
       style="fill:#0000ff;fill-opacity:0;stroke:#ff0000;stroke-width:1.0486275;stroke-opacity:1"
       id="rect6269"
       width="16.667908"
       height="125.21029"
       x="135.88983"
       y="770.04889" />
  </g>
</svg>
