<?xml version="1.0" encoding="UTF-8" standalone="no"?>
<!-- Created with Inkscape (http://www.inkscape.org/) -->

<svg
   xmlns:dc="http://purl.org/dc/elements/1.1/"
   xmlns:cc="http://creativecommons.org/ns#"
   xmlns:rdf="http://www.w3.org/1999/02/22-rdf-syntax-ns#"
   xmlns:svg="http://www.w3.org/2000/svg"
   xmlns="http://www.w3.org/2000/svg"
   xmlns:sodipodi="http://sodipodi.sourceforge.net/DTD/sodipodi-0.dtd"
   xmlns:inkscape="http://www.inkscape.org/namespaces/inkscape"
   width="210mm"
   height="297mm"
   viewBox="0 0 744.09448819 1052.3622047"
   id="svg4613"
   version="1.1"
   inkscape:version="0.91 r13725"
   sodipodi:docname="box_ends.svg">
  <defs
     id="defs4615" />
  <sodipodi:namedview
     id="base"
     pagecolor="#ffffff"
     bordercolor="#666666"
     borderopacity="1.0"
     inkscape:pageopacity="0.0"
     inkscape:pageshadow="2"
     inkscape:zoom="0.35"
     inkscape:cx="260.71429"
     inkscape:cy="862.85714"
     inkscape:document-units="px"
     inkscape:current-layer="layer1"
     showgrid="false"
     inkscape:window-width="2880"
     inkscape:window-height="1505"
     inkscape:window-x="0"
     inkscape:window-y="36"
     inkscape:window-maximized="1" />
  <metadata
     id="metadata4618">
    <rdf:RDF>
      <cc:Work
         rdf:about="">
        <dc:format>image/svg+xml</dc:format>
        <dc:type
           rdf:resource="http://purl.org/dc/dcmitype/StillImage" />
        <dc:title></dc:title>
      </cc:Work>
    </rdf:RDF>
  </metadata>
  <g
     inkscape:label="Layer 1"
     inkscape:groupmode="layer"
     id="layer1">
    <path
       inkscape:connector-curvature="0"
       id="path4481"
       inkscape:label="part"
       style="fill:none;stroke:#000000;stroke-width:1"
       d="m 40.227754,42.533747 13.4232,0 0,-10.62992 21.5788,0 0,10.62992 23.8937,0 0,-10.62992 21.578696,0 0,10.62992 23.89371,0 0,-10.62992 21.5788,0 0,10.62992 23.8937,0 0,-10.62992 21.5787,0 0,10.62992 23.8937,0 0,-10.62992 21.5787,0 0,10.62992 13.4233,0" />
    <path
       inkscape:connector-curvature="0"
       id="path4483"
       inkscape:label="part"
       style="fill:none;stroke:#000000;stroke-width:1"
       d="m 270.54276,42.533747 0,13.42323 10.6299,0 0,21.57874 -10.6299,0 0,23.893703 10.6299,0 0,21.57874 -10.6299,0 0,23.8937 10.6299,0 0,21.57874 -10.6299,0 0,23.8937 10.6299,0 0,21.57874 -10.6299,0 0,23.8937 10.6299,0 0,21.57874 -10.6299,0 0,13.42323" />
    <path
       inkscape:connector-curvature="0"
       id="path4485"
       inkscape:label="part"
       style="fill:none;stroke:#000000;stroke-width:1"
       d="m 270.54276,272.84871 -13.4233,0 0,10.62992 -21.5787,0 0,-10.62992 -23.8937,0 0,10.62992 -21.5787,0 0,-10.62992 -23.8937,0 0,10.62992 -21.5788,0 0,-10.62992 -23.89371,0 0,10.62992 -21.578696,0 0,-10.62992 -23.8937,0 0,10.62992 -21.5788,0 0,-10.62992 -13.4232,0" />
    <path
       inkscape:connector-curvature="0"
       id="path4487"
       inkscape:label="part"
       style="fill:none;stroke:#000000;stroke-width:1"
       d="m 40.227754,272.84871 0,-13.42323 -10.62992,0 0,-21.57874 10.62992,0 0,-23.8937 -10.62992,0 0,-21.57874 10.62992,0 0,-23.8937 -10.62992,0 0,-21.57874 10.62992,0 0,-23.8937 -10.62992,0 0,-21.57874 10.62992,0 0,-23.893703 -10.62992,0 0,-21.57874 10.62992,0 0,-13.42323" />
    <path
       inkscape:connector-curvature="0"
       id="path4465"
       inkscape:label="part"
       style="fill:none;stroke:#000000;stroke-width:1"
       d="m 318.02868,34.732844 13.4232,0 0,-10.629917 21.5787,0 0,10.629917 23.89371,0 0,-10.629917 21.5788,0 0,10.629917 23.8937,0 0,-10.629917 21.5787,0 0,10.629917 23.8937,0 0,-10.629917 21.5788,0 0,10.629917 23.8937,0 0,-10.629917 21.5787,0 0,10.629917 13.4232,0" />
    <path
       inkscape:connector-curvature="0"
       id="path4467"
       inkscape:label="part"
       style="fill:none;stroke:#000000;stroke-width:1"
       d="m 548.34359,34.732844 0,13.42323 10.63,0 0,21.57874 -10.63,0 0,23.8937 10.63,0 0,21.578736 -10.63,0 0,23.8937 10.63,0 0,21.57874 -10.63,0 0,23.8937 10.63,0 0,21.57874 -10.63,0 0,23.8937 10.63,0 0,21.57874 -10.63,0 0,13.42323" />
    <path
       inkscape:connector-curvature="0"
       id="path4469"
       inkscape:label="part"
       style="fill:none;stroke:#000000;stroke-width:1"
       d="m 548.34359,265.0478 -13.4232,0 0,10.62992 -21.5787,0 0,-10.62992 -23.8937,0 0,10.62992 -21.5788,0 0,-10.62992 -23.8937,0 0,10.62992 -21.5787,0 0,-10.62992 -23.8937,0 0,10.62992 -21.5788,0 0,-10.62992 -23.89371,0 0,10.62992 -21.5787,0 0,-10.62992 -13.4232,0" />
    <path
       inkscape:connector-curvature="0"
       id="path4471"
       inkscape:label="part"
       style="fill:none;stroke:#000000;stroke-width:1"
       d="m 318.02868,265.0478 0,-13.42323 -10.6299,0 0,-21.57874 10.6299,0 0,-23.8937 -10.6299,0 0,-21.57874 10.6299,0 0,-23.8937 -10.6299,0 0,-21.57874 10.6299,0 0,-23.8937 -10.6299,0 0,-21.578736 10.6299,0 0,-23.8937 -10.6299,0 0,-21.57874 10.6299,0 0,-13.42323" />
  </g>
</svg>
