<?xml version="1.0" encoding="UTF-8" standalone="no"?>
<!-- Created with Inkscape (http://www.inkscape.org/) -->

<svg
   xmlns:dc="http://purl.org/dc/elements/1.1/"
   xmlns:cc="http://creativecommons.org/ns#"
   xmlns:rdf="http://www.w3.org/1999/02/22-rdf-syntax-ns#"
   xmlns:svg="http://www.w3.org/2000/svg"
   xmlns="http://www.w3.org/2000/svg"
   xmlns:sodipodi="http://sodipodi.sourceforge.net/DTD/sodipodi-0.dtd"
   xmlns:inkscape="http://www.inkscape.org/namespaces/inkscape"
   width="210mm"
   height="297mm"
   viewBox="0 0 744.09448819 1052.3622047"
   id="svg2"
   version="1.1"
   inkscape:version="0.91 r13725"
   sodipodi:docname="box_sides.svg">
  <sodipodi:namedview
     id="base"
     pagecolor="#ffffff"
     bordercolor="#666666"
     borderopacity="1.0"
     inkscape:pageopacity="0.0"
     inkscape:pageshadow="2"
     inkscape:zoom="0.7"
     inkscape:cx="73.337318"
     inkscape:cy="549.09765"
     inkscape:document-units="px"
     inkscape:current-layer="layer1"
     showgrid="false"
     inkscape:window-width="2880"
     inkscape:window-height="1505"
     inkscape:window-x="0"
     inkscape:window-y="36"
     inkscape:window-maximized="1" />
  <defs
     id="defs4" />
  <metadata
     id="metadata7">
    <rdf:RDF>
      <cc:Work
         rdf:about="">
        <dc:format>image/svg+xml</dc:format>
        <dc:type
           rdf:resource="http://purl.org/dc/dcmitype/StillImage" />
        <dc:title></dc:title>
      </cc:Work>
    </rdf:RDF>
  </metadata>
  <g
     id="layer1"
     inkscape:groupmode="layer"
     inkscape:label="Layer 1">
    <path
       id="path4457"
       inkscape:label="part"
       style="fill:none;stroke:#000000;stroke-width:1"
       d="m 7.2328458,537.26659 22.7678322,0 0,-10.62992 21.57874,0 0,10.62992 22.608384,0 0,-10.62992 21.57874,0 0,10.62992 22.608388,0 0,-10.62992 21.57874,0 0,10.62992 22.60838,0 0,-10.62992 21.57874,0 0,10.62992 22.60838,0 0,-10.62992 21.57874,0 0,10.62992 22.60839,0 0,-10.62992 21.57874,0 0,10.62992 22.60838,0 0,-10.62992 21.57874,0 0,10.62992 22.60838,0 0,-10.62992 21.57874,0 0,10.62992 22.60839,0 0,-10.62992 21.57874,0 0,10.62992 22.60838,0 0,-10.62992 21.57874,0 0,10.62992 22.60838,0 0,-10.62992 21.57874,0 0,10.62992 22.60839,0 0,-10.62992 21.57874,0 0,10.62992 22.60838,0 0,-10.62992 21.57874,0 0,10.62992 22.60839,0 0,-10.62992 21.57874,0 0,10.62992 22.60838,0 0,-10.62992 21.57874,0 0,10.62992 22.60838,0 0,-10.62992 21.57874,0 0,10.62992 22.76784,0"
       inkscape:connector-curvature="0" />
    <path
       id="path4459"
       inkscape:label="part"
       style="fill:none;stroke:#000000;stroke-width:1"
       d="m 737.15411,537.26659 0,13.74213 -10.62993,0 0,20.94094 10.62993,0 0,24.5315 -10.62993,0 0,20.94094 10.62993,0 0,24.5315 -10.62993,0 0,20.94094 10.62993,0 0,24.5315 -10.62993,0 0,20.94095 10.62993,0 0,24.53149 -10.62993,0 0,20.94095 10.62993,0 0,13.74212"
       inkscape:connector-curvature="0" />
    <path
       id="path4461"
       inkscape:label="part"
       style="fill:none;stroke:#000000;stroke-width:1"
       d="m 737.15411,767.58155 -22.76784,0 0,10.62992 -21.57874,0 0,-10.62992 -22.60838,0 0,10.62992 -21.57874,0 0,-10.62992 -22.60838,0 0,10.62992 -21.57874,0 0,-10.62992 -22.60839,0 0,10.62992 -21.57874,0 0,-10.62992 -22.60838,0 0,10.62992 -21.57874,0 0,-10.62992 -22.60839,0 0,10.62992 -21.57874,0 0,-10.62992 -22.60838,0 0,10.62992 -21.57874,0 0,-10.62992 -22.60838,0 0,10.62992 -21.57874,0 0,-10.62992 -22.60839,0 0,10.62992 -21.57874,0 0,-10.62992 -22.60838,0 0,10.62992 -21.57874,0 0,-10.62992 -22.60838,0 0,10.62992 -21.57874,0 0,-10.62992 -22.60839,0 0,10.62992 -21.57874,0 0,-10.62992 -22.60838,0 0,10.62992 -21.57874,0 0,-10.62992 -22.60838,0 0,10.62992 -21.57874,0 0,-10.62992 -22.608388,0 0,10.62992 -21.57874,0 0,-10.62992 -22.608384,0 0,10.62992 -21.57874,0 0,-10.62992 -22.7678322,0"
       inkscape:connector-curvature="0" />
    <path
       id="path4463"
       inkscape:label="part"
       style="fill:none;stroke:#000000;stroke-width:1"
       d="m 7.2328458,767.58155 0,-13.74212 10.6299212,0 0,-20.94095 -10.6299212,0 0,-24.53149 10.6299212,0 0,-20.94095 -10.6299212,0 0,-24.5315 10.6299212,0 0,-20.94094 -10.6299212,0 0,-24.5315 10.6299212,0 0,-20.94094 -10.6299212,0 0,-24.5315 10.6299212,0 0,-20.94094 -10.6299212,0 0,-13.74213"
       inkscape:connector-curvature="0" />
    <path
       id="path4473"
       inkscape:label="part"
       style="fill:none;stroke:#000000;stroke-width:1"
       d="m 7.2328458,271.51856 23.0867302,0 0,10.62992 20.940945,0 0,-10.62992 23.246178,0 0,10.62992 20.940945,0 0,-10.62992 23.246176,0 0,10.62992 20.94095,0 0,-10.62992 23.24618,0 0,10.62992 20.94094,0 0,-10.62992 23.24618,0 0,10.62992 20.94095,0 0,-10.62992 23.24617,0 0,10.62992 20.94095,0 0,-10.62992 23.24618,0 0,10.62992 20.94094,0 0,-10.62992 23.24618,0 0,10.62992 20.94095,0 0,-10.62992 23.24618,0 0,10.62992 20.94094,0 0,-10.62992 23.24618,0 0,10.62992 20.94094,0 0,-10.62992 23.24618,0 0,10.62992 20.94095,0 0,-10.62992 23.24618,0 0,10.62992 20.94094,0 0,-10.62992 23.24618,0 0,10.62992 20.94094,0 0,-10.62992 23.24618,0 0,10.62992 20.94095,0 0,-10.62992 23.24618,0 0,10.62992 20.94094,0 0,-10.62992 23.24618,0 0,10.62992 20.94095,0 0,-10.62992 23.08673,0"
       inkscape:connector-curvature="0" />
    <path
       id="path4475"
       inkscape:label="part"
       style="fill:none;stroke:#000000;stroke-width:1"
       d="m 737.15411,271.51856 0,24.37205 -10.62993,0 0,20.94094 10.62993,0 0,24.5315 -10.62993,0 0,20.94094 10.62993,0 0,24.5315 -10.62993,0 0,20.94094 10.62993,0 0,24.5315 -10.62993,0 0,20.94095 10.62993,0 0,24.53149 -10.62993,0 0,20.94095 10.62993,0 0,24.37204"
       inkscape:connector-curvature="0" />
    <path
       id="path4477"
       inkscape:label="part"
       style="fill:none;stroke:#000000;stroke-width:1"
       d="m 737.15411,523.09336 -23.08673,0 0,-10.62992 -20.94095,0 0,10.62992 -23.24618,0 0,-10.62992 -20.94094,0 0,10.62992 -23.24618,0 0,-10.62992 -20.94095,0 0,10.62992 -23.24618,0 0,-10.62992 -20.94094,0 0,10.62992 -23.24618,0 0,-10.62992 -20.94094,0 0,10.62992 -23.24618,0 0,-10.62992 -20.94095,0 0,10.62992 -23.24618,0 0,-10.62992 -20.94094,0 0,10.62992 -23.24618,0 0,-10.62992 -20.94094,0 0,10.62992 -23.24618,0 0,-10.62992 -20.94095,0 0,10.62992 -23.24618,0 0,-10.62992 -20.94094,0 0,10.62992 -23.24618,0 0,-10.62992 -20.94095,0 0,10.62992 -23.24617,0 0,-10.62992 -20.94095,0 0,10.62992 -23.24618,0 0,-10.62992 -20.94094,0 0,10.62992 -23.24618,0 0,-10.62992 -20.94095,0 0,10.62992 -23.246176,0 0,-10.62992 -20.940945,0 0,10.62992 -23.246178,0 0,-10.62992 -20.940945,0 0,10.62992 -23.0867302,0"
       inkscape:connector-curvature="0" />
    <path
       id="path4479"
       inkscape:label="part"
       style="fill:none;stroke:#000000;stroke-width:1"
       d="m 7.2328458,523.09336 0,-24.37204 10.6299212,0 0,-20.94095 -10.6299212,0 0,-24.53149 10.6299212,0 0,-20.94095 -10.6299212,0 0,-24.5315 10.6299212,0 0,-20.94094 -10.6299212,0 0,-24.5315 10.6299212,0 0,-20.94094 -10.6299212,0 0,-24.5315 10.6299212,0 0,-20.94094 -10.6299212,0 0,-24.37205"
       inkscape:connector-curvature="0" />
    <path
       id="path4489"
       inkscape:label="part"
       style="fill:none;stroke:#000000;stroke-width:1"
       d="m 7.2440938,782.94713 23.0867302,0 0,10.62992 20.940945,0 0,-10.62992 23.246178,0 0,10.62992 20.940945,0 0,-10.62992 23.246178,0 0,10.62992 20.94095,0 0,-10.62992 23.24617,0 0,10.62992 20.94095,0 0,-10.62992 23.24618,0 0,10.62992 20.94094,0 0,-10.62992 23.24618,0 0,10.62992 20.94095,0 0,-10.62992 23.24618,0 0,10.62992 20.94094,0 0,-10.62992 23.24618,0 0,10.62992 20.94094,0 0,-10.62992 23.24618,0 0,10.62992 20.94095,0 0,-10.62992 23.24618,0 0,10.62992 20.94094,0 0,-10.62992 23.24618,0 0,10.62992 20.94095,0 0,-10.62992 23.24617,0 0,10.62992 20.94095,0 0,-10.62992 23.24618,0 0,10.62992 20.94094,0 0,-10.62992 23.24618,0 0,10.62992 20.94095,0 0,-10.62992 23.24618,0 0,10.62992 20.94094,0 0,-10.62992 23.24618,0 0,10.62992 20.94094,0 0,-10.62992 23.08673,0"
       inkscape:connector-curvature="0" />
    <path
       id="path4491"
       inkscape:label="part"
       style="fill:none;stroke:#000000;stroke-width:1"
       d="m 737.16535,782.94713 0,24.37205 -10.62992,0 0,20.94094 10.62992,0 0,24.5315 -10.62992,0 0,20.94094 10.62992,0 0,24.5315 -10.62992,0 0,20.94095 10.62992,0 0,24.53149 -10.62992,0 0,20.94095 10.62992,0 0,24.53149 -10.62992,0 0,20.94096 10.62992,0 0,24.372"
       inkscape:connector-curvature="0" />
    <path
       id="path4493"
       inkscape:label="part"
       style="fill:none;stroke:#000000;stroke-width:1"
       d="m 737.16535,1034.5219 -23.08673,0 0,-10.6299 -20.94094,0 0,10.6299 -23.24618,0 0,-10.6299 -20.94094,0 0,10.6299 -23.24618,0 0,-10.6299 -20.94095,0 0,10.6299 -23.24618,0 0,-10.6299 -20.94094,0 0,10.6299 -23.24618,0 0,-10.6299 -20.94095,0 0,10.6299 -23.24617,0 0,-10.6299 -20.94095,0 0,10.6299 -23.24618,0 0,-10.6299 -20.94094,0 0,10.6299 -23.24618,0 0,-10.6299 -20.94095,0 0,10.6299 -23.24618,0 0,-10.6299 -20.94094,0 0,10.6299 -23.24618,0 0,-10.6299 -20.94094,0 0,10.6299 -23.24618,0 0,-10.6299 -20.94095,0 0,10.6299 -23.24618,0 0,-10.6299 -20.94094,0 0,10.6299 -23.24618,0 0,-10.6299 -20.94095,0 0,10.6299 -23.24617,0 0,-10.6299 -20.94095,0 0,10.6299 -23.246178,0 0,-10.6299 -20.940945,0 0,10.6299 -23.246178,0 0,-10.6299 -20.940945,0 0,10.6299 -23.0867302,0"
       inkscape:connector-curvature="0" />
    <path
       id="path4495"
       inkscape:label="part"
       style="fill:none;stroke:#000000;stroke-width:1"
       d="m 7.2440938,1034.5219 0,-24.372 10.6299212,0 0,-20.94096 -10.6299212,0 0,-24.53149 10.6299212,0 0,-20.94095 -10.6299212,0 0,-24.53149 10.6299212,0 0,-20.94095 -10.6299212,0 0,-24.5315 10.6299212,0 0,-20.94094 -10.6299212,0 0,-24.5315 10.6299212,0 0,-20.94094 -10.6299212,0 0,-24.37205"
       inkscape:connector-curvature="0" />
    <path
       id="path4497"
       inkscape:label="part"
       style="fill:none;stroke:#000000;stroke-width:1"
       d="m 7.2328458,27.030371 22.7678322,0 0,-10.629921 21.57874,0 0,10.629921 22.608384,0 0,-10.629921 21.57874,0 0,10.629921 22.608388,0 0,-10.629921 21.57874,0 0,10.629921 22.60838,0 0,-10.629921 21.57874,0 0,10.629921 22.60838,0 0,-10.629921 21.57874,0 0,10.629921 22.60839,0 0,-10.629921 21.57874,0 0,10.629921 22.60838,0 0,-10.629921 21.57874,0 0,10.629921 22.60838,0 0,-10.629921 21.57874,0 0,10.629921 22.60839,0 0,-10.629921 21.57874,0 0,10.629921 22.60838,0 0,-10.629921 21.57874,0 0,10.629921 22.60838,0 0,-10.629921 21.57874,0 0,10.629921 22.60839,0 0,-10.629921 21.57874,0 0,10.629921 22.60838,0 0,-10.629921 21.57874,0 0,10.629921 22.60839,0 0,-10.629921 21.57874,0 0,10.629921 22.60838,0 0,-10.629921 21.57874,0 0,10.629921 22.60838,0 0,-10.629921 21.57874,0 0,10.629921 22.76784,0"
       inkscape:connector-curvature="0" />
    <path
       id="path4499"
       inkscape:label="part"
       style="fill:none;stroke:#000000;stroke-width:1"
       d="m 737.15411,27.030371 0,13.742126 -10.62993,0 0,20.940945 10.62993,0 0,24.531496 -10.62993,0 0,20.940942 10.62993,0 0,24.5315 -10.62993,0 0,20.94094 10.62993,0 0,24.5315 -10.62993,0 0,20.94094 10.62993,0 0,24.5315 -10.62993,0 0,20.94095 10.62993,0 0,13.74212"
       inkscape:connector-curvature="0" />
    <path
       id="path4501"
       inkscape:label="part"
       style="fill:none;stroke:#000000;stroke-width:1"
       d="m 737.15411,257.34533 -22.76784,0 0,10.62992 -21.57874,0 0,-10.62992 -22.60838,0 0,10.62992 -21.57874,0 0,-10.62992 -22.60838,0 0,10.62992 -21.57874,0 0,-10.62992 -22.60839,0 0,10.62992 -21.57874,0 0,-10.62992 -22.60838,0 0,10.62992 -21.57874,0 0,-10.62992 -22.60839,0 0,10.62992 -21.57874,0 0,-10.62992 -22.60838,0 0,10.62992 -21.57874,0 0,-10.62992 -22.60838,0 0,10.62992 -21.57874,0 0,-10.62992 -22.60839,0 0,10.62992 -21.57874,0 0,-10.62992 -22.60838,0 0,10.62992 -21.57874,0 0,-10.62992 -22.60838,0 0,10.62992 -21.57874,0 0,-10.62992 -22.60839,0 0,10.62992 -21.57874,0 0,-10.62992 -22.60838,0 0,10.62992 -21.57874,0 0,-10.62992 -22.60838,0 0,10.62992 -21.57874,0 0,-10.62992 -22.608388,0 0,10.62992 -21.57874,0 0,-10.62992 -22.608384,0 0,10.62992 -21.57874,0 0,-10.62992 -22.7678322,0"
       inkscape:connector-curvature="0" />
    <path
       id="path4503"
       inkscape:label="part"
       style="fill:none;stroke:#000000;stroke-width:1"
       d="m 7.2328458,257.34533 0,-13.74212 10.6299212,0 0,-20.94095 -10.6299212,0 0,-24.5315 10.6299212,0 0,-20.94094 -10.6299212,0 0,-24.5315 10.6299212,0 0,-20.94094 -10.6299212,0 0,-24.5315 10.6299212,0 0,-20.940942 -10.6299212,0 0,-24.531496 10.6299212,0 0,-20.940945 -10.6299212,0 0,-13.742126"
       inkscape:connector-curvature="0" />
  </g>
  <g
     id="g3749"
     inkscape:groupmode="layer"
     inkscape:label="newlayer" />
  <g
     inkscape:label="newlayer"
     inkscape:groupmode="layer"
     id="g4217" />
  <g
     id="g4507"
     inkscape:groupmode="layer"
     inkscape:label="newlayer" />
</svg>
